{
    "asset" : {
        "generator" : "Khronos glTF Blender I/O v3.4.50",
        "version" : "2.0"
    },
    "extensionsUsed" : [
        "KHR_materials_emissive_strength"
    ],
    "scene" : 0,
    "scenes" : [
        {
            "name" : "Scene",
            "nodes" : [
                0,
                1
            ]
        }
    ],
    "nodes" : [
        {
            "mesh" : 0,
            "name" : "PLUS",
            "translation" : [
                -7.392197608947754,
                47.61854934692383,
                -8.0556001663208
            ]
        },
        {
            "mesh" : 1,
            "name" : "PIPETTE",
            "translation" : [
                -7.392197608947754,
                47.61854934692383,
                -8.0556001663208
            ]
        }
    ],
    "materials" : [
        {
            "doubleSided" : true,
            "emissiveFactor" : [
                1,
                0.08217497915029526,
                0
            ],
            "extensions" : {
                "KHR_materials_emissive_strength" : {
                    "emissiveStrength" : 50
                }
            },
            "name" : "logo2",
            "pbrMetallicRoughness" : {
                "baseColorFactor" : [
                    0,
                    0,
                    0,
                    1
                ]
            }
        },
        {
            "doubleSided" : true,
            "emissiveFactor" : [
                0,
                0.315722793340683,
                1
            ],
            "extensions" : {
                "KHR_materials_emissive_strength" : {
                    "emissiveStrength" : 50
                }
            },
            "name" : "Logo1",
            "pbrMetallicRoughness" : {
                "baseColorFactor" : [
                    0,
                    0,
                    0,
                    1
                ]
            }
        }
    ],
    "meshes" : [
        {
            "name" : "PLUS.000",
            "primitives" : [
                {
                    "attributes" : {
                        "POSITION" : 0,
                        "TEXCOORD_0" : 1,
                        "NORMAL" : 2
                    },
                    "indices" : 3,
                    "material" : 0
                }
            ]
        },
        {
            "name" : "PIPETTE.000",
            "primitives" : [
                {
                    "attributes" : {
                        "POSITION" : 4,
                        "TEXCOORD_0" : 5,
                        "NORMAL" : 6
                    },
                    "indices" : 7,
                    "material" : 1
                }
            ]
        }
    ],
    "accessors" : [
        {
            "bufferView" : 0,
            "componentType" : 5126,
            "count" : 170,
            "max" : [
                1.253294825553894,
                1.253294825553894,
                0.5000000596046448
            ],
            "min" : [
                -1.253294825553894,
                -1.253294825553894,
                -0.5000000596046448
            ],
            "type" : "VEC3"
        },
        {
            "bufferView" : 1,
            "componentType" : 5126,
            "count" : 170,
            "type" : "VEC2"
        },
        {
            "bufferView" : 2,
            "componentType" : 5126,
            "count" : 170,
            "type" : "VEC3"
        },
        {
            "bufferView" : 3,
            "componentType" : 5123,
            "count" : 1008,
            "type" : "SCALAR"
        },
        {
            "bufferView" : 4,
            "componentType" : 5126,
            "count" : 12560,
            "max" : [
                9.605462074279785,
                9.605462074279785,
                0.5000004172325134
            ],
            "min" : [
                -9.605462074279785,
                -9.605462074279785,
                -0.5000004172325134
            ],
            "type" : "VEC3"
        },
        {
            "bufferView" : 5,
            "componentType" : 5126,
            "count" : 12560,
            "type" : "VEC2"
        },
        {
            "bufferView" : 6,
            "componentType" : 5126,
            "count" : 12560,
            "type" : "VEC3"
        },
        {
            "bufferView" : 7,
            "componentType" : 5123,
            "count" : 75168,
            "type" : "SCALAR"
        }
    ],
    "bufferViews" : [
        {
            "buffer" : 0,
            "byteLength" : 2040,
            "byteOffset" : 0,
            "target" : 34962
        },
        {
            "buffer" : 0,
            "byteLength" : 1360,
            "byteOffset" : 2040,
            "target" : 34962
        },
        {
            "buffer" : 0,
            "byteLength" : 2040,
            "byteOffset" : 3400,
            "target" : 34962
        },
        {
            "buffer" : 0,
            "byteLength" : 2016,
            "byteOffset" : 5440,
            "target" : 34963
        },
        {
            "buffer" : 0,
            "byteLength" : 150720,
            "byteOffset" : 7456,
            "target" : 34962
        },
        {
            "buffer" : 0,
            "byteLength" : 100480,
            "byteOffset" : 158176,
            "target" : 34962
        },
        {
            "buffer" : 0,
            "byteLength" : 150720,
            "byteOffset" : 258656,
            "target" : 34962
        },
        {
            "buffer" : 0,
            "byteLength" : 150336,
            "byteOffset" : 409376,
            "target" : 34963
        }
    ],
    "buffers" : [
        {
            "byteLength" : 559712,
            "uri" : "data:application/octet-stream;base64,"
        }
    ]
}
