{
    "asset" : {
        "generator" : "Khronos glTF Blender I/O v3.4.50",
        "version" : "2.0"
    },
    "extensionsUsed" : [
        "KHR_materials_specular",
        "KHR_materials_ior"
    ],
    "scene" : 0,
    "scenes" : [
        {
            "name" : "Scene",
            "nodes" : [
                0,
                1,
                2,
                3,
                4,
                5,
                6,
                7,
                8,
                9,
                10,
                11,
                12,
                13,
                14,
                15,
                16,
                17,
                18,
                19,
                20,
                21,
                22,
                23
            ]
        }
    ],
    "nodes" : [
        {
            "mesh" : 0,
            "name" : "GangConnector",
            "rotation" : [
                0,
                0.3826834559440613,
                0,
                0.9238795638084412
            ],
            "translation" : [
                -15.592860221862793,
                -0.4547785520553589,
                -37.43548583984375
            ]
        },
        {
            "mesh" : 0,
            "name" : "GangConnector.002",
            "rotation" : [
                0,
                0.3826834559440613,
                0,
                0.9238795638084412
            ],
            "translation" : [
                -22.663036346435547,
                -0.4547768831253052,
                -44.50566101074219
            ]
        },
        {
            "mesh" : 1,
            "name" : "GangConnector4Way",
            "rotation" : [
                0,
                0.3826834559440613,
                0,
                0.9238795638084412
            ],
            "translation" : [
                -29.879249572753906,
                -0.011727571487426758,
                -51.72261047363281
            ]
        },
        {
            "mesh" : 2,
            "name" : "GangElevation_Mittel",
            "rotation" : [
                0,
                -0.3826834559440613,
                0,
                0.9238795638084412
            ],
            "translation" : [
                -41.87989044189453,
                1.95705246925354,
                -39.72404479980469
            ]
        },
        {
            "mesh" : 2,
            "name" : "GangElevation_Mittel.005",
            "rotation" : [
                0,
                0.9238795638084412,
                0,
                0.3826833963394165
            ],
            "translation" : [
                -17.865638732910156,
                1.95705246925354,
                -63.73414611816406
            ]
        },
        {
            "mesh" : 3,
            "name" : "GangKurve_45Grad",
            "rotation" : [
                0,
                0.7071067094802856,
                0,
                0.7071068286895752
            ],
            "translation" : [
                -50.577430725097656,
                3.8104307651519775,
                -29.78790283203125
            ]
        },
        {
            "mesh" : 2,
            "name" : "GangElevation_Mittel.001",
            "translation" : [
                -54.30195236206055,
                6.457049369812012,
                -9.580267906188965
            ]
        },
        {
            "mesh" : 0,
            "name" : "GangConnector.003",
            "translation" : [
                -54.301002502441406,
                8.545215606689453,
                7.794548988342285
            ]
        },
        {
            "mesh" : 1,
            "name" : "GangConnector4Way.002",
            "translation" : [
                -54.30048370361328,
                8.988262176513672,
                17.587295532226562
            ]
        },
        {
            "mesh" : 4,
            "name" : "GangKurve_90Grad",
            "rotation" : [
                0,
                0.3826834261417389,
                0,
                0.9238795638084412
            ],
            "translation" : [
                -1.050023078918457,
                3.8104283809661865,
                -75.2866439819336
            ]
        },
        {
            "mesh" : 3,
            "name" : "GangKurve_45Grad.002",
            "rotation" : [
                0,
                -0.3826834559440613,
                0,
                0.9238795042037964
            ],
            "translation" : [
                10.09743881225586,
                3.810426950454712,
                -64.13774108886719
            ]
        },
        {
            "mesh" : 1,
            "name" : "GangConnector4Way.003",
            "translation" : [
                10.971790313720703,
                4.488264083862305,
                -58.144569396972656
            ]
        },
        {
            "mesh" : 3,
            "name" : "GangKurve_45Grad.003",
            "rotation" : [
                0,
                0.9238795042037964,
                0,
                0.38268348574638367
            ],
            "translation" : [
                11.84614372253418,
                3.81042742729187,
                -52.137596130371094
            ]
        },
        {
            "mesh" : 2,
            "name" : "GangElevation_Mittel.004",
            "rotation" : [
                0,
                0.38268348574638367,
                0,
                0.9238795042037964
            ],
            "translation" : [
                23.50146484375,
                6.4570465087890625,
                -35.21500778198242
            ]
        },
        {
            "mesh" : 4,
            "name" : "GangKurve_90Grad.001",
            "rotation" : [
                0,
                -1,
                0,
                7.549790126404332e-08
            ],
            "translation" : [
                -50.57844543457031,
                8.3104248046875,
                30.476539611816406
            ]
        },
        {
            "mesh" : 1,
            "name" : "GangConnector4Way.004",
            "translation" : [
                -38.049156188964844,
                8.988264083862305,
                34.19959259033203
            ]
        },
        {
            "mesh" : 0,
            "name" : "GangConnector.004",
            "rotation" : [
                0,
                0.7071067094802856,
                0,
                0.7071068286895752
            ],
            "translation" : [
                -28.185997009277344,
                8.545214653015137,
                34.200111389160156
            ]
        },
        {
            "mesh" : 2,
            "name" : "GangElevation_Mittel.003",
            "rotation" : [
                0,
                -0.7071067094802856,
                0,
                0.7071068286895752
            ],
            "translation" : [
                -11.210421562194824,
                6.4570465087890625,
                34.198123931884766
            ]
        },
        {
            "mesh" : 3,
            "name" : "GangKurve_45Grad.001",
            "rotation" : [
                0,
                -0.9238795042037964,
                0,
                0.38268348574638367
            ],
            "translation" : [
                2.11392879486084,
                3.810429334640503,
                33.32523727416992
            ]
        },
        {
            "mesh" : 0,
            "name" : "GangConnector.001",
            "rotation" : [
                0,
                0.9238795042037964,
                0,
                0.38268351554870605
            ],
            "translation" : [
                13.997581481933594,
                4.045218467712402,
                26.70751190185547
            ]
        },
        {
            "mesh" : 1,
            "name" : "GangConnector4Way.001",
            "rotation" : [
                0,
                0.3826834559440613,
                0,
                0.9238795638084412
            ],
            "translation" : [
                20.676246643066406,
                4.4882659912109375,
                20.028114318847656
            ]
        },
        {
            "mesh" : 2,
            "name" : "GangElevation_Mittel.002",
            "rotation" : [
                0,
                0.9238795042037964,
                0,
                0.38268348574638367
            ],
            "translation" : [
                32.689857482910156,
                6.4570465087890625,
                8.016581535339355
            ]
        },
        {
            "mesh" : 1,
            "name" : "GangConnector4Way.005",
            "rotation" : [
                0,
                0.3826834559440613,
                0,
                0.9238795638084412
            ],
            "translation" : [
                35.642696380615234,
                8.988262176513672,
                -23.075851440429688
            ]
        },
        {
            "mesh" : 5,
            "name" : "GangKurve_90Grad_Alt",
            "rotation" : [
                0,
                -0.3826833665370941,
                0,
                0.9238795638084412
            ],
            "translation" : [
                44.45598220825195,
                8.3104248046875,
                -8.99622631072998
            ]
        }
    ],
    "materials" : [
        {
            "doubleSided" : true,
            "extensions" : {
                "KHR_materials_specular" : {
                    "specularColorFactor" : [
                        0.1860268606040981,
                        0.1860268606040981,
                        0.1860268606040981
                    ]
                },
                "KHR_materials_ior" : {
                    "ior" : 1.4500000476837158
                }
            },
            "name" : "TexturePaletteSkycity",
            "pbrMetallicRoughness" : {
                "baseColorTexture" : {
                    "index" : 0
                },
                "metallicFactor" : 0,
                "roughnessFactor" : 0.7531324625015259
            }
        }
    ],
    "meshes" : [
        {
            "name" : "gangconnector",
            "primitives" : [
                {
                    "attributes" : {
                        "POSITION" : 0,
                        "TEXCOORD_0" : 1,
                        "NORMAL" : 2
                    },
                    "indices" : 3,
                    "material" : 0
                }
            ]
        },
        {
            "name" : "gangconnector4way",
            "primitives" : [
                {
                    "attributes" : {
                        "POSITION" : 4,
                        "TEXCOORD_0" : 5,
                        "NORMAL" : 6
                    },
                    "indices" : 7,
                    "material" : 0
                }
            ]
        },
        {
            "name" : "gangelevationmittel",
            "primitives" : [
                {
                    "attributes" : {
                        "POSITION" : 8,
                        "TEXCOORD_0" : 9,
                        "NORMAL" : 10
                    },
                    "indices" : 11,
                    "material" : 0
                }
            ]
        },
        {
            "name" : "gangkurve45grad",
            "primitives" : [
                {
                    "attributes" : {
                        "POSITION" : 12,
                        "TEXCOORD_0" : 13,
                        "NORMAL" : 14
                    },
                    "indices" : 15,
                    "material" : 0
                }
            ]
        },
        {
            "name" : "gangkurve90grad",
            "primitives" : [
                {
                    "attributes" : {
                        "POSITION" : 16,
                        "TEXCOORD_0" : 17,
                        "NORMAL" : 18
                    },
                    "indices" : 19,
                    "material" : 0
                }
            ]
        },
        {
            "name" : "gangkurve90gradalt",
            "primitives" : [
                {
                    "attributes" : {
                        "POSITION" : 20,
                        "TEXCOORD_0" : 21,
                        "NORMAL" : 22
                    },
                    "indices" : 23,
                    "material" : 0
                }
            ]
        }
    ],
    "textures" : [
        {
            "sampler" : 0,
            "source" : 0
        }
    ],
    "images" : [
        {
            "bufferView" : 4,
            "mimeType" : "image/png",
            "name" : "skycityPalette"
        }
    ],
    "accessors" : [
        {
            "bufferView" : 0,
            "componentType" : 5126,
            "count" : 700,
            "max" : [
                4.540718078613281,
                3.3451993465423584,
                4.799747467041016
            ],
            "min" : [
                -4.538978576660156,
                -11.424751281738281,
                -5.198990345001221
            ],
            "type" : "VEC3"
        },
        {
            "bufferView" : 1,
            "componentType" : 5126,
            "count" : 700,
            "type" : "VEC2"
        },
        {
            "bufferView" : 2,
            "componentType" : 5126,
            "count" : 700,
            "type" : "VEC3"
        },
        {
            "bufferView" : 3,
            "componentType" : 5123,
            "count" : 1728,
            "type" : "SCALAR"
        },
        {
            "bufferView" : 5,
            "componentType" : 5126,
            "count" : 718,
            "max" : [
                4.664168834686279,
                2.847146511077881,
                5.006797790527344
            ],
            "min" : [
                -4.645828723907471,
                -2.2028043270111084,
                -4.993003845214844
            ],
            "type" : "VEC3"
        },
        {
            "bufferView" : 6,
            "componentType" : 5126,
            "count" : 718,
            "type" : "VEC2"
        },
        {
            "bufferView" : 7,
            "componentType" : 5126,
            "count" : 718,
            "type" : "VEC3"
        },
        {
            "bufferView" : 8,
            "componentType" : 5123,
            "count" : 1902,
            "type" : "SCALAR"
        },
        {
            "bufferView" : 9,
            "componentType" : 5126,
            "count" : 5154,
            "max" : [
                4.541419982910156,
                5.383366107940674,
                12.171344757080078
            ],
            "min" : [
                -4.538581848144531,
                -13.842687606811523,
                -12.324173927307129
            ],
            "type" : "VEC3"
        },
        {
            "bufferView" : 10,
            "componentType" : 5126,
            "count" : 5154,
            "type" : "VEC2"
        },
        {
            "bufferView" : 11,
            "componentType" : 5126,
            "count" : 5154,
            "type" : "VEC3"
        },
        {
            "bufferView" : 12,
            "componentType" : 5123,
            "count" : 15216,
            "type" : "SCALAR"
        },
        {
            "bufferView" : 13,
            "componentType" : 5126,
            "count" : 1852,
            "max" : [
                4.535897731781006,
                3.579989433288574,
                3.298879861831665
            ],
            "min" : [
                -7.883460998535156,
                -11.187960624694824,
                -8.2635498046875
            ],
            "type" : "VEC3"
        },
        {
            "bufferView" : 14,
            "componentType" : 5126,
            "count" : 1852,
            "type" : "VEC2"
        },
        {
            "bufferView" : 15,
            "componentType" : 5126,
            "count" : 1852,
            "type" : "VEC3"
        },
        {
            "bufferView" : 16,
            "componentType" : 5123,
            "count" : 5226,
            "type" : "SCALAR"
        },
        {
            "bufferView" : 17,
            "componentType" : 5126,
            "count" : 3395,
            "max" : [
                8.262237548828125,
                3.579989433288574,
                7.8824462890625
            ],
            "min" : [
                -7.883460998535156,
                -11.187960624694824,
                -8.2635498046875
            ],
            "type" : "VEC3"
        },
        {
            "bufferView" : 18,
            "componentType" : 5126,
            "count" : 3395,
            "type" : "VEC2"
        },
        {
            "bufferView" : 19,
            "componentType" : 5126,
            "count" : 3395,
            "type" : "VEC3"
        },
        {
            "bufferView" : 20,
            "componentType" : 5123,
            "count" : 9810,
            "type" : "SCALAR"
        },
        {
            "bufferView" : 21,
            "componentType" : 5126,
            "count" : 3607,
            "max" : [
                8.262237548828125,
                3.579989433288574,
                8.209409713745117
            ],
            "min" : [
                -11.223410606384277,
                -11.187960624694824,
                -8.2635498046875
            ],
            "type" : "VEC3"
        },
        {
            "bufferView" : 22,
            "componentType" : 5126,
            "count" : 3607,
            "type" : "VEC2"
        },
        {
            "bufferView" : 23,
            "componentType" : 5126,
            "count" : 3607,
            "type" : "VEC3"
        },
        {
            "bufferView" : 24,
            "componentType" : 5123,
            "count" : 10398,
            "type" : "SCALAR"
        }
    ],
    "bufferViews" : [
        {
            "buffer" : 0,
            "byteLength" : 8400,
            "byteOffset" : 0,
            "target" : 34962
        },
        {
            "buffer" : 0,
            "byteLength" : 5600,
            "byteOffset" : 8400,
            "target" : 34962
        },
        {
            "buffer" : 0,
            "byteLength" : 8400,
            "byteOffset" : 14000,
            "target" : 34962
        },
        {
            "buffer" : 0,
            "byteLength" : 3456,
            "byteOffset" : 22400,
            "target" : 34963
        },
        {
            "buffer" : 0,
            "byteLength" : 238,
            "byteOffset" : 25856
        },
        {
            "buffer" : 0,
            "byteLength" : 8616,
            "byteOffset" : 26096,
            "target" : 34962
        },
        {
            "buffer" : 0,
            "byteLength" : 5744,
            "byteOffset" : 34712,
            "target" : 34962
        },
        {
            "buffer" : 0,
            "byteLength" : 8616,
            "byteOffset" : 40456,
            "target" : 34962
        },
        {
            "buffer" : 0,
            "byteLength" : 3804,
            "byteOffset" : 49072,
            "target" : 34963
        },
        {
            "buffer" : 0,
            "byteLength" : 61848,
            "byteOffset" : 52876,
            "target" : 34962
        },
        {
            "buffer" : 0,
            "byteLength" : 41232,
            "byteOffset" : 114724,
            "target" : 34962
        },
        {
            "buffer" : 0,
            "byteLength" : 61848,
            "byteOffset" : 155956,
            "target" : 34962
        },
        {
            "buffer" : 0,
            "byteLength" : 30432,
            "byteOffset" : 217804,
            "target" : 34963
        },
        {
            "buffer" : 0,
            "byteLength" : 22224,
            "byteOffset" : 248236,
            "target" : 34962
        },
        {
            "buffer" : 0,
            "byteLength" : 14816,
            "byteOffset" : 270460,
            "target" : 34962
        },
        {
            "buffer" : 0,
            "byteLength" : 22224,
            "byteOffset" : 285276,
            "target" : 34962
        },
        {
            "buffer" : 0,
            "byteLength" : 10452,
            "byteOffset" : 307500,
            "target" : 34963
        },
        {
            "buffer" : 0,
            "byteLength" : 40740,
            "byteOffset" : 317952,
            "target" : 34962
        },
        {
            "buffer" : 0,
            "byteLength" : 27160,
            "byteOffset" : 358692,
            "target" : 34962
        },
        {
            "buffer" : 0,
            "byteLength" : 40740,
            "byteOffset" : 385852,
            "target" : 34962
        },
        {
            "buffer" : 0,
            "byteLength" : 19620,
            "byteOffset" : 426592,
            "target" : 34963
        },
        {
            "buffer" : 0,
            "byteLength" : 43284,
            "byteOffset" : 446212,
            "target" : 34962
        },
        {
            "buffer" : 0,
            "byteLength" : 28856,
            "byteOffset" : 489496,
            "target" : 34962
        },
        {
            "buffer" : 0,
            "byteLength" : 43284,
            "byteOffset" : 518352,
            "target" : 34962
        },
        {
            "buffer" : 0,
            "byteLength" : 20796,
            "byteOffset" : 561636,
            "target" : 34963
        }
    ],
    "samplers" : [
        {
            "magFilter" : 9728,
            "minFilter" : 9984
        }
    ],
    "buffers" : [
        {
            "byteLength" : 582432,
            "uri" : "data:application/octet-stream;base64,"
        }
    ]
}
