{
    "asset" : {
        "generator" : "Khronos glTF Blender I/O v3.4.50",
        "version" : "2.0"
    },
    "extensionsUsed" : [
        "KHR_materials_specular",
        "KHR_materials_ior"
    ],
    "scene" : 0,
    "scenes" : [
        {
            "name" : "Scene",
            "nodes" : [
                0,
                1
            ]
        }
    ],
    "nodes" : [
        {
            "mesh" : 0,
            "name" : "Terrain",
            "translation" : [
                -56.79940414428711,
                -1.372861623764038,
                -66.27205657958984
            ]
        },
        {
            "mesh" : 1,
            "name" : "Water",
            "translation" : [
                -56.79940414428711,
                -1.372861623764038,
                -66.27205657958984
            ]
        }
    ],
    "materials" : [
        {
            "doubleSided" : true,
            "extensions" : {
                "KHR_materials_specular" : {
                    "specularColorFactor" : [
                        0,
                        0,
                        0
                    ]
                },
                "KHR_materials_ior" : {
                    "ior" : 1.4500000476837158
                }
            },
            "name" : "Terrain",
            "pbrMetallicRoughness" : {
                "metallicFactor" : 0
            }
        },
        {
            "doubleSided" : true,
            "emissiveFactor" : [
                0.07550694425466098,
                0.3232621720369586,
                0.40000003576278687
            ],
            "name" : "Material",
            "pbrMetallicRoughness" : {
                "baseColorFactor" : [
                    0,
                    0,
                    0,
                    1
                ]
            }
        },
        {
            "doubleSided" : true,
            "name" : "Water",
            "pbrMetallicRoughness" : {}
        }
    ],
    "meshes" : [
        {
            "name" : "Grid.002",
            "primitives" : [
                {
                    "attributes" : {
                        "POSITION" : 0,
                        "TEXCOORD_0" : 1,
                        "NORMAL" : 2
                    },
                    "indices" : 3,
                    "material" : 0
                },
                {
                    "attributes" : {
                        "POSITION" : 4,
                        "TEXCOORD_0" : 5,
                        "NORMAL" : 6
                    },
                    "indices" : 7,
                    "material" : 1
                }
            ]
        },
        {
            "name" : "Grid.004",
            "primitives" : [
                {
                    "attributes" : {
                        "POSITION" : 8,
                        "TEXCOORD_0" : 9,
                        "NORMAL" : 10
                    },
                    "indices" : 11,
                    "material" : 2
                }
            ]
        }
    ],
    "accessors" : [
        {
            "bufferView" : 0,
            "componentType" : 5126,
            "count" : 61758,
            "max" : [
                848.0774536132812,
                98.17701721191406,
                839.1489868164062
            ],
            "min" : [
                -839.7586669921875,
                -129.3074951171875,
                -846.3648681640625
            ],
            "type" : "VEC3"
        },
        {
            "bufferView" : 1,
            "componentType" : 5126,
            "count" : 61758,
            "type" : "VEC2"
        },
        {
            "bufferView" : 2,
            "componentType" : 5126,
            "count" : 61758,
            "type" : "VEC3"
        },
        {
            "bufferView" : 3,
            "componentType" : 5123,
            "count" : 354249,
            "type" : "SCALAR"
        },
        {
            "bufferView" : 4,
            "componentType" : 5126,
            "count" : 5047,
            "max" : [
                494.88067626953125,
                -7.934966087341309,
                839.1489868164062
            ],
            "min" : [
                -826.3899536132812,
                -12.47227668762207,
                -828.0653686523438
            ],
            "type" : "VEC3"
        },
        {
            "bufferView" : 5,
            "componentType" : 5126,
            "count" : 5047,
            "type" : "VEC2"
        },
        {
            "bufferView" : 6,
            "componentType" : 5126,
            "count" : 5047,
            "type" : "VEC3"
        },
        {
            "bufferView" : 7,
            "componentType" : 5123,
            "count" : 8307,
            "type" : "SCALAR"
        },
        {
            "bufferView" : 8,
            "componentType" : 5126,
            "count" : 24,
            "max" : [
                835.4296875,
                -8.758879661560059,
                835.859619140625
            ],
            "min" : [
                -836.3724365234375,
                -120.78958129882812,
                -835.9425048828125
            ],
            "type" : "VEC3"
        },
        {
            "bufferView" : 9,
            "componentType" : 5126,
            "count" : 24,
            "type" : "VEC2"
        },
        {
            "bufferView" : 10,
            "componentType" : 5126,
            "count" : 24,
            "type" : "VEC3"
        },
        {
            "bufferView" : 11,
            "componentType" : 5123,
            "count" : 36,
            "type" : "SCALAR"
        }
    ],
    "bufferViews" : [
        {
            "buffer" : 0,
            "byteLength" : 741096,
            "byteOffset" : 0,
            "target" : 34962
        },
        {
            "buffer" : 0,
            "byteLength" : 494064,
            "byteOffset" : 741096,
            "target" : 34962
        },
        {
            "buffer" : 0,
            "byteLength" : 741096,
            "byteOffset" : 1235160,
            "target" : 34962
        },
        {
            "buffer" : 0,
            "byteLength" : 708498,
            "byteOffset" : 1976256,
            "target" : 34963
        },
        {
            "buffer" : 0,
            "byteLength" : 60564,
            "byteOffset" : 2684756,
            "target" : 34962
        },
        {
            "buffer" : 0,
            "byteLength" : 40376,
            "byteOffset" : 2745320,
            "target" : 34962
        },
        {
            "buffer" : 0,
            "byteLength" : 60564,
            "byteOffset" : 2785696,
            "target" : 34962
        },
        {
            "buffer" : 0,
            "byteLength" : 16614,
            "byteOffset" : 2846260,
            "target" : 34963
        },
        {
            "buffer" : 0,
            "byteLength" : 288,
            "byteOffset" : 2862876,
            "target" : 34962
        },
        {
            "buffer" : 0,
            "byteLength" : 192,
            "byteOffset" : 2863164,
            "target" : 34962
        },
        {
            "buffer" : 0,
            "byteLength" : 288,
            "byteOffset" : 2863356,
            "target" : 34962
        },
        {
            "buffer" : 0,
            "byteLength" : 72,
            "byteOffset" : 2863644,
            "target" : 34963
        }
    ],
    "buffers" : [
        {
            "byteLength" : 2863716,
            "uri" : "data:application/octet-stream;base64,"
        }
    ]
}
